<?xml version="1.0" encoding="iso-8859-1"?>
<!-- Generator: Adobe Illustrator 19.0.0, SVG Export Plug-In . SVG Version: 6.00 Build 0)  -->
<svg version="1.1" id="Capa_1" xmlns="http://www.w3.org/2000/svg" xmlns:xlink="http://www.w3.org/1999/xlink" x="0px" y="0px"
	 viewBox="0 0 512 512" style="enable-background:new 0 0 512 512;" xml:space="preserve">
<path style="fill:#884D00;" d="M331.761,188.113c0,40.705-0.01,97.661-0.061,120.226c-0.01,5.798-0.03,9.323-0.051,9.717
	c-1.929,37.978-31.907,68.582-69.643,71.491c-1.949,0.152-3.909,0.232-5.899,0.232c-40.452,0-73.501-31.766-75.541-71.723
	c-0.02-0.394-0.04-3.828-0.05-9.474c-0.051-22.362-0.061-79.47-0.061-120.306c0-25.756,0.01-45.038,0.01-45.038
	c0-20.878,8.474-39.796,22.16-53.482c13.686-13.686,32.594-22.16,53.482-22.16c12.434,0,24.16,3,34.503,8.313
	c24.433,12.545,41.139,37.988,41.139,67.33C331.751,143.237,331.761,162.437,331.761,188.113z"/>
<path style="fill:#AA6100;" d="M331.761,188.113c0,40.705-0.01,97.661-0.061,120.226c-0.01,5.798-0.03,9.323-0.051,9.717
	c-1.929,37.978-31.907,68.582-69.643,71.491c-23.332-11.979-39.624-35.725-41.038-63.411c-0.02-0.394-0.04-3.828-0.051-9.474
	c-0.051-22.362-0.061-79.47-0.061-120.307c0-25.756,0.01-45.038,0.01-45.038c0-20.878,8.474-39.796,22.16-53.482
	c12.383-12.383,29.049-20.504,47.583-21.928c24.433,12.545,41.139,37.988,41.139,67.33
	C331.751,143.237,331.761,162.437,331.761,188.113z"/>
<path style="fill:#D1E7F8;" d="M151.558,332.408c-24.686,24.686-60.845,30.867-91.288,18.555
	c-10.181-4.111-19.716-10.302-27.978-18.555c-32.938-32.927-32.938-86.329,0-119.266c32.938-32.927,159.789-104.004,192.727-71.067
	c3.788,3.798,6.171,8.798,7.353,14.737C241.573,202.445,180.708,303.268,151.558,332.408z"/>
<path style="fill:#C2DFF6;" d="M151.558,332.408c-24.686,24.686-60.845,30.867-91.288,18.555
	c-28.524-33.129-27.079-83.167,4.343-114.59c27.16-27.16,118.206-80.258,167.758-79.561
	C241.573,202.445,180.708,303.268,151.558,332.408z"/>
<path style="fill:#D1E7F8;" d="M479.924,332.408c-9.121,9.121-19.807,15.716-31.2,19.787c-29.736,10.626-64.249,4.03-88.066-19.787
	c-28.928-28.918-89.106-128.458-81.016-174.566c1.121-6.394,3.555-11.757,7.555-15.767c32.938-32.938,159.789,38.139,192.727,71.067
	C512.861,246.079,512.861,299.48,479.924,332.408z"/>
<path style="fill:#C2DFF6;" d="M448.723,352.195c-29.736,10.626-64.249,4.03-88.066-19.787
	c-28.928-28.918-89.106-128.458-81.016-174.566c50.108,1.263,138.275,52.896,164.93,79.541
	C476.066,268.876,477.45,319.065,448.723,352.195z"/>
<path style="fill:#FFCD00;" d="M331.699,308.339c-0.01,5.798-0.03,9.323-0.05,9.717c-2.03,39.937-35.079,71.723-75.541,71.723
	c-40.452,0-73.501-31.766-75.541-71.723c-0.02-0.394-0.04-3.828-0.051-9.474c21.463-15.019,47.583-23.827,75.764-23.827
	C284.308,284.754,310.307,293.471,331.699,308.339z"/>
<path style="fill:#FFEB99;" d="M379.05,346.357c-4.677,63.815-57.936,114.125-122.943,114.125s-118.266-50.31-122.943-114.125
	c6.586-3.697,12.787-8.343,18.393-13.949c7.969-7.969,18.302-21.292,28.938-37.372c0.01,5.293,0.01,9.888,0.02,13.545
	c0.01,5.646,0.03,9.08,0.051,9.474c2.04,39.957,35.089,71.723,75.541,71.723c40.462,0,73.511-31.786,75.541-71.723
	c0.02-0.394,0.04-3.919,0.05-9.717c0.01-3.626,0.01-8.131,0.01-13.312c10.636,16.09,20.979,29.413,28.948,37.382
	C366.263,338.014,372.465,342.66,379.05,346.357z"/>
<path style="fill:#EE8700;" d="M331.709,295.026c0,5.182,0,9.686-0.01,13.312c-21.393-14.868-47.391-23.585-75.42-23.585
	c-28.18,0-54.3,8.808-75.763,23.827c-0.01-3.656-0.01-8.252-0.02-13.545c14.747-22.322,30.059-49.977,40.382-76.026
	c11.161-3.323,22.989-5.111,35.23-5.111c12.242,0,24.069,1.788,35.23,5.111C301.661,245.059,316.973,272.704,331.709,295.026z"/>
<g>
	<path style="fill:#D1E7F8;" d="M132.821,337.196c0,3.081,0.111,6.141,0.343,9.161c6.586-3.697,12.787-8.343,18.393-13.949
		c7.969-7.969,18.302-21.292,28.938-37.372c14.747-22.322,30.059-49.977,40.382-76.026c-14.827,4.414-28.493,11.545-40.412,20.817
		C151.477,262.381,132.821,297.612,132.821,337.196z"/>
	<path style="fill:#D1E7F8;" d="M331.751,239.827c-11.919-9.272-25.584-16.403-40.412-20.817
		c10.323,26.049,25.635,53.694,40.372,76.016c10.636,16.09,20.979,29.413,28.948,37.382c5.606,5.606,11.807,10.252,18.393,13.949
		c0.232-3.02,0.343-6.08,0.343-9.161C379.394,297.612,360.739,262.381,331.751,239.827z"/>
</g>
<path d="M504.942,271.017c-4.171-0.283-7.787,2.869-8.07,7.04c-4.262,61.908-77.154,93.599-125.165,54.159
	c-16.564-13.591-36.804-45.372-47.543-63.865c0-0.01,0-0.01,0-0.01c-9.893-17.045-19.959-36.93-27.039-55.492h-0.01
	c-6.525-17.06-10.646-33.089-10.646-45.836c0-18.496,8.056-29.093,37.695-25.069c47.761,6.321,125.412,51.568,150.406,76.561
	c9,9,15.666,20.161,19.282,32.281c1.192,4.01,5.404,6.293,9.414,5.101c4.01-1.202,6.293-5.414,5.101-9.424
	c-4.323-14.524-12.312-27.897-23.09-38.675c-23.928-23.928-94.54-66.683-147.143-78.612c-3.747-21.948-16.12-40.998-33.503-53.502
	l9.686-21.1c1.737-3.798,0.071-8.303-3.727-10.05c-3.808-1.747-8.303-0.071-10.05,3.727l-9.04,19.686
	c-23.083-10.913-49.273-10.194-70.814-0.05l-9.01-19.635c-1.747-3.798-6.242-5.474-10.05-3.727
	c-3.798,1.747-5.464,6.252-3.727,10.05l9.676,21.059c-17.089,12.281-29.716,31.172-33.503,53.522
	c-17.888,4.04-36.291,11.313-50.543,17.747c-3.808,1.717-5.505,6.212-3.778,10.02c1.717,3.818,6.202,5.505,10.02,3.788
	c21.473-9.693,73.217-29.949,89.884-13.282c26.89,26.89-39.773,145.95-73.451,179.626c-14.461,14.461-33.707,22.484-54.28,22.484
	c-67.62,0-102.932-82.381-54.28-131.033c12.282-12.282,37.958-29.766,65.431-44.563c3.677-1.98,5.06-6.575,3.071-10.262
	c-1.98-3.677-6.575-5.06-10.262-3.071c-29.089,15.666-55.512,33.746-68.946,47.179c-35.906,35.906-35.929,94.053,0,129.983
	c27.451,27.451,67.285,33.483,99.954,20.06c3.757,23.655,13.969,45.957,29.645,64.299c2.727,3.182,7.505,3.545,10.686,0.828
	c3.182-2.717,3.555-7.495,0.838-10.676c-14.969-17.504-24.292-39.089-26.898-61.855c13.247-8.451,22.176-18.842,31.857-31.655
	c2.424,44.088,38.856,78.582,83.086,78.582c44.24,0,80.672-34.493,83.086-78.582c9.846,13.031,18.718,23.269,31.877,31.665
	c-9.801,86.657-110.186,132.377-182.091,81.026c-3.404-2.424-8.141-1.636-10.565,1.768c-2.434,3.404-1.646,8.131,1.757,10.565
	c79.592,56.81,190.333,8.636,205.171-85.955c58.308,23.927,122.385-16.604,126.639-78.743
	C512.265,274.926,509.114,271.31,504.942,271.017z M190.111,126.47c11.882-47.083,68.972-67.489,108.045-36.725
	c11.616,9.151,20.181,21.989,23.928,36.735c-40.249-4.209-64.062,18.04-42.664,81.915c-14.974-2.701-30.981-2.821-46.624,0
	C254.152,144.645,230.497,122.338,190.111,126.47z M226.473,225.303c18.898-5.014,39.683-5.197,59.269,0
	c9.394,22.909,22.202,46.676,35.867,68.047c-40.045-21.244-89.6-21.983-131.175,0.263
	C203.823,272.723,216.87,248.722,226.473,225.303z M256.107,382.203c-34.82,0-67.622-26.564-68.006-69.612
	c40.635-26.59,94.188-27.387,136.013-0.222C323.976,354.984,291.367,382.203,256.107,382.203z"/>
<g>
</g>
<g>
</g>
<g>
</g>
<g>
</g>
<g>
</g>
<g>
</g>
<g>
</g>
<g>
</g>
<g>
</g>
<g>
</g>
<g>
</g>
<g>
</g>
<g>
</g>
<g>
</g>
<g>
</g>
</svg>
