<?xml version="1.0" encoding="UTF-8"?>
<svg xmlns="http://www.w3.org/2000/svg" xmlns:xlink="http://www.w3.org/1999/xlink" width="15pt" height="15pt" viewBox="0 0 15 15" version="1.1">
<g id="surface1">
<path style=" stroke:none;fill-rule:nonzero;fill:rgb(53.333333%,30.196078%,0%);fill-opacity:1;" d="M 9.71875 5.511719 C 9.71875 6.703125 9.71875 8.371094 9.71875 9.035156 C 9.71875 9.203125 9.71875 9.304688 9.714844 9.316406 C 9.660156 10.429688 8.78125 11.328125 7.675781 11.414062 C 7.617188 11.417969 7.5625 11.417969 7.503906 11.417969 C 6.316406 11.417969 5.351562 10.488281 5.289062 9.316406 C 5.289062 9.304688 5.289062 9.207031 5.289062 9.039062 C 5.285156 8.386719 5.285156 6.710938 5.285156 5.515625 C 5.285156 4.761719 5.285156 4.195312 5.285156 4.195312 C 5.285156 3.585938 5.535156 3.03125 5.9375 2.628906 C 6.335938 2.230469 6.890625 1.980469 7.503906 1.980469 C 7.867188 1.980469 8.210938 2.066406 8.515625 2.222656 C 9.230469 2.589844 9.71875 3.335938 9.71875 4.195312 C 9.71875 4.195312 9.71875 4.757812 9.71875 5.511719 Z M 9.71875 5.511719 "/>
<path style=" stroke:none;fill-rule:nonzero;fill:rgb(66.666667%,38.039216%,0%);fill-opacity:1;" d="M 9.71875 5.511719 C 9.71875 6.703125 9.71875 8.371094 9.71875 9.035156 C 9.71875 9.203125 9.71875 9.304688 9.714844 9.316406 C 9.660156 10.429688 8.78125 11.328125 7.675781 11.414062 C 6.992188 11.0625 6.515625 10.367188 6.472656 9.554688 C 6.472656 9.542969 6.472656 9.441406 6.472656 9.277344 C 6.46875 8.621094 6.46875 6.949219 6.46875 5.753906 C 6.46875 4.996094 6.46875 4.433594 6.46875 4.433594 C 6.46875 3.820312 6.71875 3.265625 7.121094 2.867188 C 7.484375 2.503906 7.972656 2.265625 8.515625 2.222656 C 9.230469 2.589844 9.71875 3.335938 9.71875 4.195312 C 9.71875 4.195312 9.71875 4.757812 9.71875 5.511719 Z M 9.71875 5.511719 "/>
<path style=" stroke:none;fill-rule:nonzero;fill:rgb(81.960784%,90.588235%,97.254902%);fill-opacity:1;" d="M 4.441406 9.738281 C 3.71875 10.460938 2.65625 10.644531 1.765625 10.28125 C 1.46875 10.160156 1.1875 9.980469 0.945312 9.738281 C -0.0195312 8.773438 -0.0195312 7.210938 0.945312 6.246094 C 1.910156 5.28125 5.628906 3.199219 6.59375 4.164062 C 6.703125 4.273438 6.773438 4.421875 6.808594 4.59375 C 7.078125 5.929688 5.292969 8.886719 4.441406 9.738281 Z M 4.441406 9.738281 "/>
<path style=" stroke:none;fill-rule:nonzero;fill:rgb(76.078431%,87.45098%,96.470588%);fill-opacity:1;" d="M 4.441406 9.738281 C 3.71875 10.460938 2.65625 10.644531 1.765625 10.28125 C 0.929688 9.3125 0.972656 7.84375 1.894531 6.925781 C 2.6875 6.128906 5.355469 4.574219 6.808594 4.59375 C 7.078125 5.929688 5.292969 8.886719 4.441406 9.738281 Z M 4.441406 9.738281 "/>
<path style=" stroke:none;fill-rule:nonzero;fill:rgb(81.960784%,90.588235%,97.254902%);fill-opacity:1;" d="M 14.058594 9.738281 C 13.792969 10.003906 13.480469 10.199219 13.144531 10.316406 C 12.273438 10.628906 11.265625 10.4375 10.566406 9.738281 C 9.71875 8.890625 7.957031 5.976562 8.191406 4.625 C 8.226562 4.4375 8.296875 4.28125 8.414062 4.164062 C 9.378906 3.199219 13.09375 5.28125 14.058594 6.246094 C 15.023438 7.210938 15.023438 8.773438 14.058594 9.738281 Z M 14.058594 9.738281 "/>
<path style=" stroke:none;fill-rule:nonzero;fill:rgb(76.078431%,87.45098%,96.470588%);fill-opacity:1;" d="M 13.144531 10.316406 C 12.273438 10.628906 11.265625 10.4375 10.566406 9.738281 C 9.71875 8.890625 7.957031 5.976562 8.191406 4.625 C 9.660156 4.660156 12.242188 6.175781 13.023438 6.953125 C 13.945312 7.878906 13.988281 9.347656 13.144531 10.316406 Z M 13.144531 10.316406 "/>
<path style=" stroke:none;fill-rule:nonzero;fill:rgb(100%,80.392157%,0%);fill-opacity:1;" d="M 9.71875 9.035156 C 9.71875 9.203125 9.71875 9.304688 9.714844 9.316406 C 9.65625 10.488281 8.6875 11.417969 7.503906 11.417969 C 6.316406 11.417969 5.351562 10.488281 5.289062 9.316406 C 5.289062 9.304688 5.289062 9.207031 5.289062 9.039062 C 5.917969 8.601562 6.683594 8.34375 7.507812 8.34375 C 8.328125 8.34375 9.089844 8.597656 9.71875 9.035156 Z M 9.71875 9.035156 "/>
<path style=" stroke:none;fill-rule:nonzero;fill:rgb(100%,92.156863%,60%);fill-opacity:1;" d="M 11.105469 10.148438 C 10.96875 12.015625 9.40625 13.492188 7.503906 13.492188 C 5.597656 13.492188 4.039062 12.015625 3.902344 10.148438 C 4.09375 10.039062 4.277344 9.902344 4.441406 9.738281 C 4.671875 9.503906 4.976562 9.113281 5.289062 8.644531 C 5.289062 8.796875 5.289062 8.933594 5.289062 9.039062 C 5.289062 9.207031 5.289062 9.304688 5.289062 9.316406 C 5.351562 10.488281 6.316406 11.417969 7.503906 11.417969 C 8.6875 11.417969 9.65625 10.488281 9.714844 9.316406 C 9.71875 9.304688 9.71875 9.203125 9.71875 9.035156 C 9.71875 8.925781 9.71875 8.796875 9.71875 8.644531 C 10.03125 9.113281 10.332031 9.503906 10.566406 9.738281 C 10.730469 9.902344 10.910156 10.039062 11.105469 10.148438 Z M 11.105469 10.148438 "/>
<path style=" stroke:none;fill-rule:nonzero;fill:rgb(93.333333%,52.941176%,0%);fill-opacity:1;" d="M 9.71875 8.644531 C 9.71875 8.796875 9.71875 8.925781 9.71875 9.035156 C 9.089844 8.597656 8.328125 8.34375 7.507812 8.34375 C 6.683594 8.34375 5.917969 8.601562 5.289062 9.039062 C 5.289062 8.933594 5.289062 8.796875 5.289062 8.644531 C 5.71875 7.988281 6.167969 7.179688 6.472656 6.417969 C 6.796875 6.320312 7.144531 6.265625 7.503906 6.265625 C 7.863281 6.265625 8.207031 6.320312 8.535156 6.417969 C 8.835938 7.179688 9.285156 7.988281 9.71875 8.644531 Z M 9.71875 8.644531 "/>
<path style=" stroke:none;fill-rule:nonzero;fill:rgb(81.960784%,90.588235%,97.254902%);fill-opacity:1;" d="M 3.890625 9.878906 C 3.890625 9.96875 3.894531 10.058594 3.902344 10.148438 C 4.09375 10.039062 4.277344 9.902344 4.441406 9.738281 C 4.671875 9.503906 4.976562 9.113281 5.289062 8.644531 C 5.71875 7.988281 6.167969 7.179688 6.472656 6.417969 C 6.035156 6.546875 5.636719 6.753906 5.285156 7.027344 C 4.4375 7.6875 3.890625 8.71875 3.890625 9.878906 Z M 3.890625 9.878906 "/>
<path style=" stroke:none;fill-rule:nonzero;fill:rgb(81.960784%,90.588235%,97.254902%);fill-opacity:1;" d="M 9.71875 7.027344 C 9.371094 6.753906 8.96875 6.546875 8.535156 6.417969 C 8.835938 7.179688 9.285156 7.988281 9.71875 8.644531 C 10.03125 9.113281 10.332031 9.503906 10.566406 9.738281 C 10.730469 9.902344 10.910156 10.039062 11.105469 10.148438 C 11.113281 10.058594 11.113281 9.96875 11.113281 9.878906 C 11.113281 8.71875 10.570312 7.6875 9.71875 7.027344 Z M 9.71875 7.027344 "/>
<path style=" stroke:none;fill-rule:nonzero;fill:rgb(0%,0%,0%);fill-opacity:1;" d="M 14.792969 7.941406 C 14.671875 7.933594 14.566406 8.023438 14.558594 8.144531 C 14.433594 9.960938 12.296875 10.886719 10.890625 9.734375 C 10.40625 9.335938 9.8125 8.402344 9.496094 7.863281 C 9.207031 7.363281 8.914062 6.78125 8.703125 6.234375 C 8.511719 5.734375 8.394531 5.265625 8.394531 4.894531 C 8.394531 4.351562 8.628906 4.039062 9.496094 4.160156 C 10.894531 4.34375 13.171875 5.667969 13.902344 6.402344 C 14.167969 6.664062 14.363281 6.992188 14.46875 7.347656 C 14.503906 7.464844 14.625 7.53125 14.742188 7.496094 C 14.863281 7.460938 14.929688 7.339844 14.894531 7.21875 C 14.765625 6.796875 14.53125 6.402344 14.21875 6.085938 C 13.515625 5.386719 11.449219 4.132812 9.90625 3.785156 C 9.796875 3.140625 9.433594 2.582031 8.925781 2.21875 L 9.207031 1.597656 C 9.257812 1.488281 9.210938 1.355469 9.097656 1.304688 C 8.988281 1.253906 8.855469 1.300781 8.804688 1.414062 L 8.539062 1.992188 C 7.863281 1.671875 7.097656 1.691406 6.464844 1.988281 L 6.203125 1.414062 C 6.148438 1.300781 6.019531 1.253906 5.90625 1.304688 C 5.796875 1.355469 5.746094 1.488281 5.796875 1.597656 L 6.082031 2.214844 C 5.582031 2.574219 5.210938 3.128906 5.101562 3.785156 C 4.574219 3.902344 4.035156 4.117188 3.617188 4.304688 C 3.507812 4.355469 3.457031 4.484375 3.507812 4.597656 C 3.558594 4.710938 3.691406 4.757812 3.800781 4.707031 C 4.429688 4.425781 5.945312 3.832031 6.433594 4.320312 C 7.222656 5.105469 5.269531 8.59375 4.285156 9.582031 C 3.859375 10.003906 3.296875 10.242188 2.691406 10.242188 C 0.710938 10.242188 -0.324219 7.828125 1.101562 6.402344 C 1.460938 6.042969 2.214844 5.53125 3.019531 5.097656 C 3.128906 5.039062 3.167969 4.902344 3.109375 4.796875 C 3.050781 4.6875 2.917969 4.648438 2.808594 4.707031 C 1.957031 5.164062 1.183594 5.695312 0.789062 6.085938 C -0.261719 7.140625 -0.261719 8.84375 0.789062 9.894531 C 1.59375 10.699219 2.761719 10.875 3.71875 10.484375 C 3.828125 11.175781 4.125 11.828125 4.585938 12.367188 C 4.664062 12.460938 4.804688 12.472656 4.898438 12.390625 C 4.992188 12.3125 5.003906 12.171875 4.921875 12.078125 C 4.484375 11.566406 4.210938 10.933594 4.136719 10.265625 C 4.523438 10.019531 4.785156 9.714844 5.070312 9.339844 C 5.140625 10.628906 6.207031 11.640625 7.503906 11.640625 C 8.800781 11.640625 9.867188 10.628906 9.9375 9.339844 C 10.226562 9.722656 10.484375 10.019531 10.871094 10.265625 C 10.585938 12.804688 7.644531 14.144531 5.535156 12.640625 C 5.4375 12.570312 5.296875 12.59375 5.226562 12.691406 C 5.15625 12.792969 5.179688 12.929688 5.277344 13 C 7.609375 14.667969 10.855469 13.253906 11.289062 10.484375 C 12.996094 11.183594 14.875 9.996094 15 8.175781 C 15.007812 8.054688 14.914062 7.949219 14.792969 7.941406 Z M 5.570312 3.707031 C 5.917969 2.324219 7.589844 1.726562 8.734375 2.628906 C 9.074219 2.898438 9.328125 3.273438 9.4375 3.707031 C 8.257812 3.582031 7.558594 4.234375 8.1875 6.105469 C 7.746094 6.027344 7.277344 6.023438 6.820312 6.105469 C 7.445312 4.238281 6.753906 3.585938 5.570312 3.707031 Z M 6.636719 6.601562 C 7.1875 6.453125 7.796875 6.449219 8.371094 6.601562 C 8.648438 7.273438 9.023438 7.96875 9.421875 8.59375 C 8.25 7.972656 6.796875 7.949219 5.578125 8.601562 C 5.972656 7.988281 6.355469 7.285156 6.636719 6.601562 Z M 7.503906 11.199219 C 6.484375 11.199219 5.523438 10.417969 5.511719 9.15625 C 6.703125 8.378906 8.269531 8.355469 9.496094 9.152344 C 9.492188 10.398438 8.535156 11.199219 7.503906 11.199219 Z M 7.503906 11.199219 "/>
</g>
</svg>
