<?xml version="1.0" encoding="UTF-8"?>
<svg xmlns="http://www.w3.org/2000/svg" xmlns:xlink="http://www.w3.org/1999/xlink" width="20pt" height="20pt" viewBox="0 0 20 20" version="1.1">
<g id="surface1">
<path style=" stroke:none;fill-rule:nonzero;fill:rgb(53.333333%,30.196078%,0%);fill-opacity:1;" d="M 12.960938 7.347656 C 12.960938 8.9375 12.960938 11.164062 12.957031 12.042969 C 12.957031 12.269531 12.957031 12.410156 12.953125 12.425781 C 12.878906 13.90625 11.707031 15.101562 10.234375 15.214844 C 10.160156 15.222656 10.082031 15.226562 10.003906 15.226562 C 8.425781 15.226562 7.132812 13.984375 7.054688 12.425781 C 7.050781 12.410156 7.050781 12.273438 7.050781 12.054688 C 7.050781 11.179688 7.050781 8.949219 7.050781 7.355469 C 7.050781 6.347656 7.050781 5.59375 7.050781 5.59375 C 7.050781 4.78125 7.378906 4.039062 7.914062 3.507812 C 8.449219 2.972656 9.1875 2.640625 10.003906 2.640625 C 10.488281 2.640625 10.949219 2.757812 11.351562 2.964844 C 12.304688 3.457031 12.957031 4.449219 12.957031 5.59375 C 12.960938 5.59375 12.960938 6.34375 12.960938 7.347656 Z M 12.960938 7.347656 "/>
<path style=" stroke:none;fill-rule:nonzero;fill:rgb(66.666667%,38.039216%,0%);fill-opacity:1;" d="M 12.960938 7.347656 C 12.960938 8.9375 12.960938 11.164062 12.957031 12.042969 C 12.957031 12.269531 12.957031 12.410156 12.953125 12.425781 C 12.878906 13.90625 11.707031 15.101562 10.234375 15.214844 C 9.324219 14.75 8.6875 13.820312 8.632812 12.738281 C 8.628906 12.722656 8.628906 12.589844 8.628906 12.371094 C 8.628906 11.496094 8.628906 9.265625 8.628906 7.671875 C 8.628906 6.664062 8.628906 5.910156 8.628906 5.910156 C 8.628906 5.09375 8.957031 4.355469 9.492188 3.820312 C 9.976562 3.339844 10.628906 3.019531 11.351562 2.964844 C 12.304688 3.457031 12.957031 4.449219 12.957031 5.59375 C 12.960938 5.59375 12.960938 6.34375 12.960938 7.347656 Z M 12.960938 7.347656 "/>
<path style=" stroke:none;fill-rule:nonzero;fill:rgb(81.960784%,90.588235%,97.254902%);fill-opacity:1;" d="M 5.921875 12.984375 C 4.957031 13.949219 3.542969 14.191406 2.355469 13.710938 C 1.957031 13.550781 1.585938 13.308594 1.261719 12.984375 C -0.0234375 11.699219 -0.0234375 9.613281 1.261719 8.324219 C 2.546875 7.039062 7.503906 4.261719 8.789062 5.550781 C 8.9375 5.699219 9.03125 5.894531 9.078125 6.125 C 9.4375 7.90625 7.058594 11.847656 5.921875 12.984375 Z M 5.921875 12.984375 "/>
<path style=" stroke:none;fill-rule:nonzero;fill:rgb(76.078431%,87.45098%,96.470588%);fill-opacity:1;" d="M 5.921875 12.984375 C 4.957031 13.949219 3.542969 14.191406 2.355469 13.710938 C 1.238281 12.414062 1.296875 10.460938 2.523438 9.234375 C 3.585938 8.171875 7.140625 6.097656 9.078125 6.125 C 9.4375 7.90625 7.058594 11.847656 5.921875 12.984375 Z M 5.921875 12.984375 "/>
<path style=" stroke:none;fill-rule:nonzero;fill:rgb(81.960784%,90.588235%,97.254902%);fill-opacity:1;" d="M 18.746094 12.984375 C 18.390625 13.339844 17.972656 13.597656 17.527344 13.757812 C 16.367188 14.171875 15.019531 13.914062 14.089844 12.984375 C 12.957031 11.855469 10.609375 7.964844 10.921875 6.164062 C 10.96875 5.914062 11.0625 5.707031 11.21875 5.550781 C 12.503906 4.261719 17.460938 7.039062 18.746094 8.324219 C 20.035156 9.613281 20.035156 11.699219 18.746094 12.984375 Z M 18.746094 12.984375 "/>
<path style=" stroke:none;fill-rule:nonzero;fill:rgb(76.078431%,87.45098%,96.470588%);fill-opacity:1;" d="M 17.527344 13.757812 C 16.367188 14.171875 15.019531 13.914062 14.089844 12.984375 C 12.957031 11.855469 10.609375 7.96875 10.921875 6.164062 C 12.878906 6.214844 16.324219 8.230469 17.367188 9.273438 C 18.597656 10.503906 18.648438 12.464844 17.527344 13.757812 Z M 17.527344 13.757812 "/>
<path style=" stroke:none;fill-rule:nonzero;fill:rgb(100%,80.392157%,0%);fill-opacity:1;" d="M 12.957031 12.042969 C 12.957031 12.269531 12.957031 12.410156 12.953125 12.425781 C 12.875 13.984375 11.585938 15.226562 10.003906 15.226562 C 8.425781 15.226562 7.132812 13.984375 7.054688 12.425781 C 7.050781 12.410156 7.050781 12.273438 7.050781 12.054688 C 7.890625 11.46875 8.910156 11.125 10.011719 11.125 C 11.105469 11.125 12.121094 11.464844 12.957031 12.042969 Z M 12.957031 12.042969 "/>
<path style=" stroke:none;fill-rule:nonzero;fill:rgb(100%,92.156863%,60%);fill-opacity:1;" d="M 14.804688 13.53125 C 14.625 16.023438 12.542969 17.988281 10.003906 17.988281 C 7.464844 17.988281 5.382812 16.023438 5.203125 13.53125 C 5.457031 13.386719 5.703125 13.203125 5.921875 12.984375 C 6.230469 12.671875 6.636719 12.152344 7.050781 11.523438 C 7.050781 11.730469 7.050781 11.910156 7.050781 12.054688 C 7.050781 12.273438 7.050781 12.410156 7.054688 12.425781 C 7.132812 13.984375 8.425781 15.226562 10.003906 15.226562 C 11.585938 15.226562 12.875 13.984375 12.953125 12.425781 C 12.957031 12.410156 12.957031 12.269531 12.957031 12.042969 C 12.957031 11.902344 12.957031 11.726562 12.957031 11.523438 C 13.371094 12.152344 13.777344 12.671875 14.089844 12.984375 C 14.308594 13.203125 14.550781 13.386719 14.804688 13.53125 Z M 14.804688 13.53125 "/>
<path style=" stroke:none;fill-rule:nonzero;fill:rgb(93.333333%,52.941176%,0%);fill-opacity:1;" d="M 12.957031 11.523438 C 12.957031 11.726562 12.957031 11.902344 12.957031 12.042969 C 12.121094 11.464844 11.105469 11.125 10.011719 11.125 C 8.910156 11.125 7.890625 11.46875 7.050781 12.054688 C 7.050781 11.910156 7.050781 11.730469 7.050781 11.523438 C 7.625 10.652344 8.226562 9.574219 8.628906 8.554688 C 9.0625 8.425781 9.527344 8.355469 10.003906 8.355469 C 10.484375 8.355469 10.945312 8.425781 11.378906 8.554688 C 11.785156 9.574219 12.382812 10.652344 12.957031 11.523438 Z M 12.957031 11.523438 "/>
<path style=" stroke:none;fill-rule:nonzero;fill:rgb(81.960784%,90.588235%,97.254902%);fill-opacity:1;" d="M 5.1875 13.171875 C 5.1875 13.292969 5.191406 13.410156 5.203125 13.53125 C 5.460938 13.386719 5.703125 13.203125 5.921875 12.984375 C 6.230469 12.671875 6.636719 12.152344 7.050781 11.523438 C 7.625 10.652344 8.226562 9.574219 8.628906 8.554688 C 8.046875 8.726562 7.515625 9.007812 7.050781 9.367188 C 5.917969 10.25 5.1875 11.625 5.1875 13.171875 Z M 5.1875 13.171875 "/>
<path style=" stroke:none;fill-rule:nonzero;fill:rgb(81.960784%,90.588235%,97.254902%);fill-opacity:1;" d="M 12.960938 9.367188 C 12.492188 9.007812 11.960938 8.726562 11.378906 8.554688 C 11.785156 9.574219 12.382812 10.652344 12.957031 11.523438 C 13.371094 12.152344 13.777344 12.671875 14.089844 12.984375 C 14.308594 13.203125 14.550781 13.386719 14.808594 13.53125 C 14.816406 13.410156 14.820312 13.292969 14.820312 13.171875 C 14.820312 11.625 14.089844 10.25 12.960938 9.367188 Z M 12.960938 9.367188 "/>
<path style=" stroke:none;fill-rule:nonzero;fill:rgb(0%,0%,0%);fill-opacity:1;" d="M 19.722656 10.585938 C 19.5625 10.574219 19.421875 10.699219 19.410156 10.863281 C 19.242188 13.28125 16.394531 14.519531 14.519531 12.976562 C 13.871094 12.445312 13.082031 11.203125 12.664062 10.484375 C 12.664062 10.480469 12.664062 10.480469 12.664062 10.480469 C 12.277344 9.816406 11.882812 9.039062 11.605469 8.3125 C 11.351562 7.648438 11.191406 7.023438 11.191406 6.523438 C 11.191406 5.800781 11.503906 5.386719 12.664062 5.542969 C 14.527344 5.792969 17.5625 7.558594 18.539062 8.535156 C 18.890625 8.886719 19.148438 9.324219 19.292969 9.796875 C 19.335938 9.953125 19.503906 10.042969 19.660156 9.996094 C 19.816406 9.949219 19.90625 9.785156 19.859375 9.628906 C 19.6875 9.058594 19.378906 8.539062 18.957031 8.117188 C 18.019531 7.183594 15.261719 5.511719 13.207031 5.046875 C 13.0625 4.1875 12.578125 3.445312 11.898438 2.957031 L 12.277344 2.132812 C 12.347656 1.984375 12.28125 1.808594 12.132812 1.738281 C 11.984375 1.671875 11.808594 1.738281 11.738281 1.886719 L 11.386719 2.652344 C 10.484375 2.226562 9.460938 2.253906 8.621094 2.652344 L 8.269531 1.886719 C 8.199219 1.738281 8.023438 1.671875 7.875 1.738281 C 7.726562 1.808594 7.664062 1.984375 7.730469 2.132812 L 8.109375 2.953125 C 7.441406 3.433594 6.949219 4.171875 6.800781 5.046875 C 6.101562 5.203125 5.382812 5.488281 4.824219 5.738281 C 4.675781 5.804688 4.609375 5.980469 4.679688 6.128906 C 4.746094 6.277344 4.921875 6.34375 5.070312 6.277344 C 5.90625 5.898438 7.929688 5.109375 8.582031 5.757812 C 9.628906 6.808594 7.027344 11.460938 5.710938 12.777344 C 5.144531 13.339844 4.394531 13.652344 3.589844 13.652344 C 0.949219 13.652344 -0.429688 10.4375 1.46875 8.535156 C 1.949219 8.054688 2.953125 7.371094 4.027344 6.792969 C 4.171875 6.71875 4.222656 6.539062 4.144531 6.394531 C 4.070312 6.25 3.890625 6.195312 3.746094 6.273438 C 2.609375 6.886719 1.578125 7.59375 1.050781 8.117188 C -0.351562 9.519531 -0.351562 11.789062 1.050781 13.195312 C 2.125 14.265625 3.679688 14.503906 4.957031 13.976562 C 5.101562 14.902344 5.503906 15.773438 6.113281 16.488281 C 6.222656 16.613281 6.40625 16.628906 6.53125 16.523438 C 6.65625 16.414062 6.671875 16.230469 6.566406 16.105469 C 5.980469 15.421875 5.617188 14.578125 5.515625 13.6875 C 6.03125 13.359375 6.378906 12.953125 6.757812 12.453125 C 6.851562 14.175781 8.277344 15.523438 10.003906 15.523438 C 11.730469 15.523438 13.15625 14.175781 13.25 12.453125 C 13.632812 12.960938 13.980469 13.359375 14.496094 13.6875 C 14.113281 17.074219 10.191406 18.859375 7.382812 16.855469 C 7.25 16.757812 7.0625 16.789062 6.96875 16.921875 C 6.875 17.054688 6.90625 17.242188 7.039062 17.335938 C 10.148438 19.554688 14.472656 17.671875 15.050781 13.976562 C 17.328125 14.914062 19.832031 13.328125 20 10.902344 C 20.011719 10.738281 19.886719 10.597656 19.722656 10.585938 Z M 7.425781 4.941406 C 7.890625 3.101562 10.121094 2.304688 11.648438 3.503906 C 12.101562 3.863281 12.433594 4.363281 12.582031 4.941406 C 11.007812 4.777344 10.078125 5.644531 10.914062 8.140625 C 10.328125 8.035156 9.703125 8.03125 9.09375 8.140625 C 9.929688 5.648438 9.003906 4.777344 7.425781 4.941406 Z M 8.847656 8.800781 C 9.585938 8.605469 10.398438 8.597656 11.160156 8.800781 C 11.527344 9.695312 12.027344 10.625 12.5625 11.460938 C 11 10.628906 9.0625 10.601562 7.4375 11.46875 C 7.960938 10.652344 8.472656 9.714844 8.847656 8.800781 Z M 10.003906 14.929688 C 8.644531 14.929688 7.363281 13.890625 7.347656 12.210938 C 8.933594 11.171875 11.027344 11.140625 12.660156 12.203125 C 12.65625 13.867188 11.382812 14.929688 10.003906 14.929688 Z M 10.003906 14.929688 "/>
</g>
</svg>
