<?xml version="1.0" encoding="UTF-8"?>
<svg xmlns="http://www.w3.org/2000/svg" xmlns:xlink="http://www.w3.org/1999/xlink" width="25pt" height="25pt" viewBox="0 0 25 25" version="1.1">
<g id="surface1">
<path style=" stroke:none;fill-rule:nonzero;fill:rgb(53.333333%,30.196078%,0%);fill-opacity:1;" d="M 16.199219 9.183594 C 16.199219 11.171875 16.199219 13.953125 16.195312 15.054688 C 16.195312 15.339844 16.195312 15.511719 16.195312 15.53125 C 16.101562 17.382812 14.636719 18.878906 12.792969 19.019531 C 12.699219 19.027344 12.601562 19.03125 12.503906 19.03125 C 10.53125 19.03125 8.917969 17.480469 8.816406 15.53125 C 8.816406 15.511719 8.816406 15.34375 8.8125 15.066406 C 8.8125 13.976562 8.8125 11.1875 8.8125 9.191406 C 8.8125 7.933594 8.8125 6.992188 8.8125 6.992188 C 8.8125 5.972656 9.226562 5.050781 9.894531 4.382812 C 10.5625 3.714844 11.484375 3.300781 12.503906 3.300781 C 13.113281 3.300781 13.683594 3.445312 14.191406 3.707031 C 15.382812 4.320312 16.199219 5.5625 16.199219 6.992188 C 16.199219 6.992188 16.199219 7.929688 16.199219 9.183594 Z M 16.199219 9.183594 "/>
<path style=" stroke:none;fill-rule:nonzero;fill:rgb(66.666667%,38.039216%,0%);fill-opacity:1;" d="M 16.199219 9.183594 C 16.199219 11.171875 16.199219 13.953125 16.195312 15.054688 C 16.195312 15.339844 16.195312 15.511719 16.195312 15.53125 C 16.101562 17.382812 14.636719 18.878906 12.792969 19.019531 C 11.652344 18.4375 10.859375 17.277344 10.789062 15.925781 C 10.789062 15.90625 10.789062 15.738281 10.785156 15.460938 C 10.785156 14.371094 10.785156 11.582031 10.785156 9.585938 C 10.785156 8.328125 10.785156 7.386719 10.785156 7.386719 C 10.785156 6.367188 11.199219 5.445312 11.867188 4.777344 C 12.472656 4.171875 13.285156 3.777344 14.191406 3.707031 C 15.382812 4.320312 16.199219 5.5625 16.199219 6.992188 C 16.199219 6.992188 16.199219 7.929688 16.199219 9.183594 Z M 16.199219 9.183594 "/>
<path style=" stroke:none;fill-rule:nonzero;fill:rgb(81.960784%,90.588235%,97.254902%);fill-opacity:1;" d="M 7.398438 16.230469 C 6.195312 17.4375 4.429688 17.738281 2.941406 17.136719 C 2.445312 16.9375 1.980469 16.632812 1.578125 16.230469 C -0.03125 14.625 -0.03125 12.015625 1.578125 10.40625 C 3.183594 8.800781 9.378906 5.328125 10.988281 6.9375 C 11.171875 7.121094 11.289062 7.367188 11.347656 7.65625 C 11.796875 9.886719 8.824219 14.808594 7.398438 16.230469 Z M 7.398438 16.230469 "/>
<path style=" stroke:none;fill-rule:nonzero;fill:rgb(76.078431%,87.45098%,96.470588%);fill-opacity:1;" d="M 7.398438 16.230469 C 6.195312 17.4375 4.429688 17.738281 2.941406 17.136719 C 1.550781 15.519531 1.621094 13.074219 3.15625 11.542969 C 4.480469 10.214844 8.925781 7.621094 11.347656 7.65625 C 11.796875 9.886719 8.824219 14.808594 7.398438 16.230469 Z M 7.398438 16.230469 "/>
<path style=" stroke:none;fill-rule:nonzero;fill:rgb(81.960784%,90.588235%,97.254902%);fill-opacity:1;" d="M 23.433594 16.230469 C 22.988281 16.675781 22.464844 17 21.910156 17.195312 C 20.457031 17.714844 18.773438 17.394531 17.609375 16.230469 C 16.199219 14.820312 13.257812 9.957031 13.65625 7.707031 C 13.710938 7.394531 13.828125 7.132812 14.023438 6.9375 C 15.632812 5.328125 21.824219 8.800781 23.433594 10.40625 C 25.042969 12.015625 25.042969 14.621094 23.433594 16.230469 Z M 23.433594 16.230469 "/>
<path style=" stroke:none;fill-rule:nonzero;fill:rgb(76.078431%,87.45098%,96.470588%);fill-opacity:1;" d="M 21.910156 17.195312 C 20.457031 17.714844 18.773438 17.394531 17.609375 16.230469 C 16.199219 14.820312 13.257812 9.957031 13.65625 7.707031 C 16.101562 7.769531 20.40625 10.289062 21.707031 11.589844 C 23.246094 13.128906 23.3125 15.578125 21.910156 17.195312 Z M 21.910156 17.195312 "/>
<path style=" stroke:none;fill-rule:nonzero;fill:rgb(100%,80.392157%,0%);fill-opacity:1;" d="M 16.195312 15.054688 C 16.195312 15.339844 16.195312 15.511719 16.195312 15.53125 C 16.09375 17.480469 14.480469 19.03125 12.503906 19.03125 C 10.53125 19.03125 8.917969 17.480469 8.816406 15.53125 C 8.816406 15.511719 8.816406 15.34375 8.8125 15.066406 C 9.863281 14.335938 11.136719 13.902344 12.515625 13.902344 C 13.882812 13.902344 15.152344 14.328125 16.195312 15.054688 Z M 16.195312 15.054688 "/>
<path style=" stroke:none;fill-rule:nonzero;fill:rgb(100%,92.156863%,60%);fill-opacity:1;" d="M 18.507812 16.910156 C 18.28125 20.027344 15.679688 22.484375 12.503906 22.484375 C 9.332031 22.484375 6.730469 20.027344 6.503906 16.910156 C 6.824219 16.730469 7.125 16.503906 7.398438 16.230469 C 7.789062 15.839844 8.292969 15.191406 8.8125 14.40625 C 8.8125 14.664062 8.8125 14.890625 8.8125 15.066406 C 8.816406 15.34375 8.816406 15.511719 8.816406 15.53125 C 8.917969 17.480469 10.53125 19.03125 12.503906 19.03125 C 14.480469 19.03125 16.09375 17.480469 16.195312 15.53125 C 16.195312 15.511719 16.195312 15.339844 16.195312 15.054688 C 16.195312 14.878906 16.195312 14.660156 16.195312 14.40625 C 16.714844 15.191406 17.222656 15.839844 17.609375 16.230469 C 17.882812 16.503906 18.1875 16.730469 18.507812 16.910156 Z M 18.507812 16.910156 "/>
<path style=" stroke:none;fill-rule:nonzero;fill:rgb(93.333333%,52.941176%,0%);fill-opacity:1;" d="M 16.195312 14.40625 C 16.195312 14.660156 16.195312 14.878906 16.195312 15.054688 C 15.152344 14.328125 13.882812 13.902344 12.511719 13.902344 C 11.136719 13.902344 9.863281 14.335938 8.8125 15.066406 C 8.8125 14.890625 8.8125 14.664062 8.8125 14.40625 C 9.535156 13.316406 10.28125 11.964844 10.785156 10.695312 C 11.328125 10.53125 11.90625 10.445312 12.503906 10.445312 C 13.101562 10.445312 13.679688 10.53125 14.226562 10.695312 C 14.730469 11.964844 15.476562 13.316406 16.195312 14.40625 Z M 16.195312 14.40625 "/>
<path style=" stroke:none;fill-rule:nonzero;fill:rgb(81.960784%,90.588235%,97.254902%);fill-opacity:1;" d="M 6.484375 16.464844 C 6.484375 16.613281 6.492188 16.765625 6.503906 16.910156 C 6.824219 16.730469 7.125 16.503906 7.398438 16.230469 C 7.789062 15.839844 8.292969 15.191406 8.8125 14.40625 C 9.535156 13.316406 10.28125 11.964844 10.785156 10.695312 C 10.0625 10.910156 9.394531 11.257812 8.8125 11.710938 C 7.394531 12.8125 6.484375 14.53125 6.484375 16.464844 Z M 6.484375 16.464844 "/>
<path style=" stroke:none;fill-rule:nonzero;fill:rgb(81.960784%,90.588235%,97.254902%);fill-opacity:1;" d="M 16.199219 11.710938 C 15.617188 11.257812 14.949219 10.910156 14.226562 10.695312 C 14.730469 11.964844 15.476562 13.316406 16.195312 14.40625 C 16.714844 15.191406 17.222656 15.839844 17.609375 16.230469 C 17.882812 16.503906 18.1875 16.730469 18.507812 16.910156 C 18.519531 16.765625 18.523438 16.613281 18.523438 16.464844 C 18.523438 14.53125 17.613281 12.8125 16.199219 11.710938 Z M 16.199219 11.710938 "/>
<path style=" stroke:none;fill-rule:nonzero;fill:rgb(0%,0%,0%);fill-opacity:1;" d="M 24.65625 13.234375 C 24.453125 13.21875 24.273438 13.375 24.261719 13.578125 C 24.054688 16.601562 20.492188 18.148438 18.148438 16.222656 C 17.339844 15.558594 16.351562 14.007812 15.828125 13.101562 C 15.34375 12.269531 14.855469 11.300781 14.507812 10.394531 C 14.1875 9.558594 13.988281 8.777344 13.988281 8.15625 C 13.988281 7.25 14.382812 6.734375 15.828125 6.929688 C 18.160156 7.238281 21.953125 9.449219 23.171875 10.667969 C 23.613281 11.109375 23.9375 11.652344 24.113281 12.246094 C 24.171875 12.441406 24.378906 12.550781 24.574219 12.496094 C 24.769531 12.4375 24.878906 12.230469 24.824219 12.035156 C 24.613281 11.324219 24.222656 10.671875 23.695312 10.144531 C 22.527344 8.976562 19.078125 6.890625 16.511719 6.308594 C 16.328125 5.234375 15.722656 4.304688 14.875 3.695312 L 15.347656 2.664062 C 15.433594 2.480469 15.351562 2.257812 15.164062 2.175781 C 14.980469 2.089844 14.761719 2.171875 14.675781 2.355469 L 14.234375 3.316406 C 13.105469 2.785156 11.828125 2.820312 10.777344 3.316406 L 10.335938 2.355469 C 10.25 2.171875 10.03125 2.089844 9.84375 2.175781 C 9.660156 2.257812 9.578125 2.480469 9.664062 2.664062 L 10.136719 3.691406 C 9.300781 4.292969 8.683594 5.214844 8.5 6.304688 C 7.625 6.503906 6.726562 6.859375 6.03125 7.171875 C 5.847656 7.257812 5.761719 7.476562 5.847656 7.664062 C 5.929688 7.847656 6.148438 7.929688 6.335938 7.847656 C 7.386719 7.375 9.910156 6.386719 10.726562 7.199219 C 12.039062 8.511719 8.785156 14.324219 7.140625 15.96875 C 6.433594 16.675781 5.492188 17.066406 4.488281 17.066406 C 1.1875 17.066406 -0.539062 13.042969 1.839844 10.667969 C 2.4375 10.070312 3.691406 9.214844 5.03125 8.492188 C 5.210938 8.398438 5.28125 8.171875 5.183594 7.992188 C 5.085938 7.8125 4.863281 7.746094 4.683594 7.84375 C 3.261719 8.605469 1.972656 9.488281 1.316406 10.144531 C -0.4375 11.898438 -0.4375 14.738281 1.316406 16.492188 C 2.65625 17.832031 4.601562 18.128906 6.195312 17.472656 C 6.378906 18.628906 6.878906 19.714844 7.644531 20.613281 C 7.777344 20.765625 8.011719 20.785156 8.164062 20.652344 C 8.320312 20.519531 8.339844 20.285156 8.207031 20.132812 C 7.476562 19.277344 7.019531 18.222656 6.894531 17.109375 C 7.539062 16.699219 7.976562 16.191406 8.449219 15.566406 C 8.566406 17.71875 10.34375 19.402344 12.503906 19.402344 C 14.664062 19.402344 16.445312 17.71875 16.5625 15.566406 C 17.042969 16.203125 17.476562 16.703125 18.117188 17.109375 C 17.640625 21.34375 12.738281 23.574219 9.226562 21.066406 C 9.0625 20.949219 8.828125 20.988281 8.710938 21.152344 C 8.59375 21.320312 8.632812 21.550781 8.796875 21.667969 C 12.683594 24.445312 18.089844 22.089844 18.816406 17.472656 C 21.664062 18.640625 24.792969 16.660156 25 13.628906 C 25.011719 13.425781 24.859375 13.246094 24.65625 13.234375 Z M 9.28125 6.175781 C 9.863281 3.875 12.652344 2.878906 14.558594 4.382812 C 15.125 4.828125 15.542969 5.457031 15.726562 6.175781 C 13.761719 5.96875 12.597656 7.054688 13.644531 10.175781 C 12.914062 10.042969 12.128906 10.039062 11.367188 10.175781 C 12.410156 7.0625 11.253906 5.972656 9.28125 6.175781 Z M 11.058594 11 C 11.980469 10.757812 12.996094 10.746094 13.953125 11 C 14.410156 12.121094 15.035156 13.28125 15.703125 14.324219 C 13.75 13.285156 11.328125 13.25 9.296875 14.335938 C 9.953125 13.316406 10.589844 12.144531 11.058594 11 Z M 12.503906 18.664062 C 10.804688 18.664062 9.203125 17.363281 9.183594 15.261719 C 11.167969 13.964844 13.785156 13.925781 15.824219 15.253906 C 15.820312 17.332031 14.226562 18.664062 12.503906 18.664062 Z M 12.503906 18.664062 "/>
</g>
</svg>
