<?xml version="1.0" encoding="UTF-8"?>
<svg xmlns="http://www.w3.org/2000/svg" xmlns:xlink="http://www.w3.org/1999/xlink" width="20pt" height="20pt" viewBox="0 0 20 20" version="1.1">
<g id="surface1">
<path style=" stroke:none;fill-rule:nonzero;fill:rgb(0%,76.470588%,100%);fill-opacity:1;" d="M 9.996094 9.207031 L 9.378906 9.207031 C 9.378906 8.738281 6.351562 2.628906 1.535156 2.628906 C 0.285156 2.628906 0.292969 3.253906 0.292969 3.566406 C 0.292969 4.507812 2.238281 6.164062 1.535156 8.265625 C 1.285156 9.015625 2.4375 9.417969 3.90625 9.628906 L 3.894531 9.628906 C 1.832031 11.089844 1.492188 13.304688 2.800781 15.160156 C 4.261719 17.230469 5.957031 17.457031 7.183594 17.351562 C 8.359375 17.25 9.867188 13.324219 9.996094 12.992188 Z M 9.996094 9.207031 "/>
<path style=" stroke:none;fill-rule:nonzero;fill:rgb(0%,66.666667%,94.117647%);fill-opacity:1;" d="M 10.003906 9.214844 C 7.882812 8.910156 3.519531 7.984375 1.683594 7.328125 C 1.683594 7.628906 1.644531 7.941406 1.535156 8.265625 C 1.285156 9.015625 2.4375 9.417969 3.90625 9.628906 L 3.894531 9.628906 C 3.828125 9.675781 9.949219 9.519531 9.996094 9.519531 C 10.015625 9.519531 9.984375 9.21875 10.003906 9.214844 Z M 10.003906 9.214844 "/>
<path style=" stroke:none;fill-rule:nonzero;fill:rgb(54.901961%,86.27451%,100%);fill-opacity:1;" d="M 1.535156 2.628906 C 0.285156 2.628906 0.292969 3.253906 0.292969 3.566406 C 0.292969 3.792969 0.40625 4.0625 0.566406 4.367188 C 3.660156 6.179688 7.804688 8.527344 9.378906 9.207031 C 9.378906 8.738281 6.351562 2.628906 1.535156 2.628906 Z M 1.535156 2.628906 "/>
<path style=" stroke:none;fill-rule:nonzero;fill:rgb(36.470588%,32.54902%,37.647059%);fill-opacity:1;" d="M 1.535156 2.628906 C 0.285156 2.628906 0.292969 3.253906 0.292969 3.566406 C 0.292969 4.074219 0.855469 4.789062 1.265625 5.667969 C 1.960938 4.578125 3.289062 3.488281 5.65625 4.1875 C 4.503906 3.285156 3.117188 2.628906 1.535156 2.628906 Z M 1.535156 2.628906 "/>
<path style=" stroke:none;fill-rule:nonzero;fill:rgb(54.901961%,86.27451%,100%);fill-opacity:1;" d="M 5.179688 13.480469 L 2.121094 13.683594 C 2.238281 14.1875 2.464844 14.683594 2.800781 15.160156 C 3.054688 15.523438 3.320312 15.824219 3.585938 16.082031 L 5.402344 13.929688 C 5.558594 13.746094 5.417969 13.464844 5.179688 13.480469 Z M 5.179688 13.480469 "/>
<path style=" stroke:none;fill-rule:nonzero;fill:rgb(0%,76.470588%,100%);fill-opacity:1;" d="M 10.003906 9.207031 L 10.621094 9.207031 C 10.621094 8.738281 13.648438 2.628906 18.464844 2.628906 C 19.714844 2.628906 19.707031 3.253906 19.707031 3.566406 C 19.707031 4.507812 17.761719 6.164062 18.464844 8.265625 C 18.714844 9.015625 17.5625 9.417969 16.09375 9.628906 L 16.105469 9.628906 C 18.167969 11.089844 18.507812 13.304688 17.199219 15.160156 C 15.738281 17.230469 14.042969 17.457031 12.816406 17.351562 C 11.640625 17.25 10.132812 13.324219 10.003906 12.992188 Z M 10.003906 9.207031 "/>
<path style=" stroke:none;fill-rule:nonzero;fill:rgb(0%,66.666667%,94.117647%);fill-opacity:1;" d="M 9.996094 9.214844 C 12.117188 8.910156 16.480469 7.984375 18.316406 7.328125 C 18.316406 7.628906 18.355469 7.941406 18.464844 8.265625 C 18.714844 9.015625 17.5625 9.417969 16.09375 9.628906 L 16.105469 9.628906 C 16.171875 9.675781 10.050781 9.519531 10.003906 9.519531 C 9.984375 9.519531 10.015625 9.21875 9.996094 9.214844 Z M 9.996094 9.214844 "/>
<path style=" stroke:none;fill-rule:nonzero;fill:rgb(54.901961%,86.27451%,100%);fill-opacity:1;" d="M 18.464844 2.628906 C 19.714844 2.628906 19.707031 3.253906 19.707031 3.566406 C 19.707031 3.792969 19.59375 4.0625 19.433594 4.367188 C 16.339844 6.179688 12.195312 8.527344 10.621094 9.207031 C 10.621094 8.738281 13.648438 2.628906 18.464844 2.628906 Z M 18.464844 2.628906 "/>
<path style=" stroke:none;fill-rule:nonzero;fill:rgb(36.470588%,32.54902%,37.647059%);fill-opacity:1;" d="M 18.464844 2.628906 C 19.714844 2.628906 19.707031 3.253906 19.707031 3.566406 C 19.707031 4.074219 19.144531 4.789062 18.734375 5.667969 C 18.039062 4.578125 16.710938 3.488281 14.34375 4.1875 C 15.496094 3.285156 16.882812 2.628906 18.464844 2.628906 Z M 18.464844 2.628906 "/>
<path style=" stroke:none;fill-rule:nonzero;fill:rgb(54.901961%,86.27451%,100%);fill-opacity:1;" d="M 14.820312 13.480469 L 17.878906 13.683594 C 17.761719 14.1875 17.535156 14.683594 17.199219 15.160156 C 16.945312 15.523438 16.679688 15.824219 16.414062 16.082031 L 14.597656 13.929688 C 14.441406 13.746094 14.582031 13.464844 14.820312 13.480469 Z M 14.820312 13.480469 "/>
<path style=" stroke:none;fill-rule:nonzero;fill:rgb(29.411765%,24.705882%,30.588235%);fill-opacity:1;" d="M 10.945312 10.929688 C 10.945312 9.804688 10.523438 8.894531 10.003906 8.894531 C 9.484375 8.894531 9.066406 9.804688 9.066406 10.929688 C 9.066406 12.054688 9.484375 12.964844 10.003906 12.964844 C 10.523438 12.964844 10.945312 12.054688 10.945312 10.929688 Z M 10.945312 10.929688 "/>
<path style=" stroke:none;fill-rule:nonzero;fill:rgb(36.470588%,32.54902%,37.647059%);fill-opacity:1;" d="M 10.621094 8.265625 C 10.621094 8.613281 10.339844 8.894531 9.996094 8.894531 C 9.648438 8.894531 9.367188 8.613281 9.367188 8.265625 C 9.367188 7.921875 9.648438 7.640625 9.996094 7.640625 C 10.339844 7.640625 10.621094 7.921875 10.621094 8.265625 Z M 10.621094 8.265625 "/>
<path style=" stroke:none;fill-rule:nonzero;fill:rgb(0%,0%,0%);fill-opacity:1;" d="M 19.78125 2.792969 C 19.53125 2.484375 19.101562 2.335938 18.464844 2.335938 C 15.824219 2.335938 13.769531 4.082031 12.515625 5.550781 C 11.757812 6.433594 11.226562 7.28125 10.914062 7.835938 C 10.902344 7.859375 10.878906 7.898438 10.855469 7.941406 C 10.804688 7.808594 10.726562 7.691406 10.621094 7.59375 C 10.695312 7.320312 10.898438 6.585938 11.164062 5.863281 C 11.765625 4.226562 12.105469 4.183594 12.109375 4.183594 C 12.109375 4.183594 12.164062 4.199219 12.25 4.34375 C 12.332031 4.484375 12.511719 4.527344 12.652344 4.445312 C 12.789062 4.363281 12.835938 4.183594 12.753906 4.042969 C 12.507812 3.628906 12.21875 3.574219 12.023438 3.605469 C 11.402344 3.695312 10.933594 4.777344 10.59375 5.714844 C 10.355469 6.378906 10.171875 7.023438 10.082031 7.351562 C 10.054688 7.347656 10.023438 7.347656 9.996094 7.347656 C 9.964844 7.347656 9.9375 7.347656 9.910156 7.351562 C 9.820312 7.023438 9.636719 6.378906 9.394531 5.714844 C 9.058594 4.777344 8.589844 3.695312 7.964844 3.605469 C 7.769531 3.574219 7.484375 3.628906 7.238281 4.042969 C 7.15625 4.183594 7.199219 4.363281 7.339844 4.445312 C 7.480469 4.527344 7.660156 4.484375 7.742188 4.34375 C 7.828125 4.199219 7.878906 4.183594 7.878906 4.183594 C 7.882812 4.183594 8.226562 4.226562 8.824219 5.859375 C 9.089844 6.582031 9.292969 7.316406 9.367188 7.59375 C 9.269531 7.6875 9.191406 7.804688 9.140625 7.933594 C 9.117188 7.890625 9.097656 7.859375 9.085938 7.835938 C 8.773438 7.28125 8.242188 6.433594 7.488281 5.550781 C 6.230469 4.082031 4.179688 2.335938 1.535156 2.335938 C 0.898438 2.335938 0.46875 2.484375 0.21875 2.792969 C 0 3.066406 0 3.386719 0 3.558594 L 0 3.566406 C 0 3.96875 0.253906 4.417969 0.546875 4.9375 C 1.050781 5.820312 1.675781 6.921875 1.257812 8.175781 C 1.164062 8.460938 1.207031 8.738281 1.386719 8.980469 C 1.65625 9.339844 2.257812 9.613281 3.203125 9.804688 C 1.523438 11.316406 1.25 13.46875 2.558594 15.328125 C 3.246094 16.304688 4.058594 16.980469 4.972656 17.34375 C 5.515625 17.558594 6.085938 17.664062 6.710938 17.664062 C 6.871094 17.664062 7.039062 17.65625 7.210938 17.644531 C 7.582031 17.613281 7.960938 17.335938 8.375 16.800781 C 8.671875 16.417969 8.988281 15.898438 9.316406 15.253906 C 9.460938 14.96875 9.59375 14.6875 9.710938 14.429688 L 9.710938 15.472656 C 9.710938 15.632812 9.84375 15.765625 10.003906 15.765625 C 10.167969 15.765625 10.296875 15.632812 10.296875 15.472656 L 10.296875 14.449219 C 10.414062 14.703125 10.542969 14.976562 10.683594 15.253906 C 11.011719 15.898438 11.328125 16.417969 11.625 16.800781 C 12.039062 17.335938 12.417969 17.613281 12.789062 17.644531 C 12.960938 17.660156 13.128906 17.664062 13.289062 17.664062 C 13.914062 17.664062 14.484375 17.558594 15.027344 17.34375 C 15.941406 16.980469 16.753906 16.304688 17.441406 15.328125 C 18.75 13.46875 18.476562 11.316406 16.796875 9.804688 C 17.742188 9.613281 18.34375 9.339844 18.613281 8.980469 C 18.792969 8.738281 18.835938 8.460938 18.742188 8.175781 C 18.324219 6.921875 18.949219 5.820312 19.453125 4.9375 C 19.746094 4.417969 20 3.96875 20 3.566406 L 20 3.558594 C 20 3.386719 20 3.066406 19.78125 2.792969 Z M 11.558594 10.140625 L 15.167969 12.285156 L 12.304688 12.097656 L 11.238281 10.832031 C 11.230469 10.585938 11.207031 10.351562 11.167969 10.132812 C 11.269531 10.136719 11.402344 10.136719 11.558594 10.140625 Z M 10.003906 12.671875 C 9.882812 12.671875 9.726562 12.503906 9.605469 12.246094 C 9.449219 11.90625 9.359375 11.425781 9.359375 10.929688 C 9.359375 10.433594 9.449219 9.953125 9.605469 9.613281 C 9.726562 9.351562 9.882812 9.1875 10.003906 9.1875 C 10.128906 9.1875 10.285156 9.351562 10.402344 9.613281 C 10.5625 9.953125 10.652344 10.433594 10.652344 10.929688 C 10.652344 11.425781 10.5625 11.90625 10.402344 12.246094 C 10.285156 12.503906 10.128906 12.671875 10.003906 12.671875 Z M 7.695312 12.097656 L 4.832031 12.285156 L 8.441406 10.140625 C 8.601562 10.136719 8.738281 10.136719 8.839844 10.132812 C 8.800781 10.347656 8.777344 10.578125 8.773438 10.820312 Z M 10.328125 8.265625 C 10.328125 8.449219 10.179688 8.601562 9.996094 8.601562 C 9.8125 8.601562 9.660156 8.449219 9.660156 8.265625 C 9.660156 8.082031 9.8125 7.933594 9.996094 7.933594 C 10.179688 7.933594 10.328125 8.082031 10.328125 8.265625 Z M 1.855469 8.628906 C 1.789062 8.542969 1.78125 8.464844 1.816406 8.359375 C 2.144531 7.363281 1.9375 6.464844 1.601562 5.699219 C 1.628906 5.605469 1.867188 4.898438 2.941406 4.539062 C 3.082031 4.488281 3.175781 4.347656 3.144531 4.203125 C 3.113281 4.023438 2.933594 3.921875 2.765625 3.976562 C 1.957031 4.246094 1.515625 4.691406 1.28125 5.046875 C 1.203125 4.90625 1.128906 4.773438 1.058594 4.648438 C 0.816406 4.21875 0.585938 3.816406 0.585938 3.566406 L 0.585938 3.558594 C 0.585938 3.425781 0.585938 3.273438 0.675781 3.160156 C 0.800781 3.003906 1.097656 2.921875 1.535156 2.921875 C 2.625 2.921875 3.609375 3.253906 4.46875 3.742188 C 4.328125 3.742188 4.1875 3.742188 4.050781 3.75 C 3.890625 3.757812 3.757812 3.890625 3.761719 4.050781 C 3.769531 4.214844 3.90625 4.34375 4.070312 4.335938 C 4.488281 4.3125 4.953125 4.335938 5.453125 4.402344 C 6.046875 4.863281 6.558594 5.375 6.976562 5.859375 C 8.308594 7.390625 9.039062 8.960938 9.085938 9.21875 C 9.089844 9.25 9.089844 9.332031 9.078125 9.363281 C 9.050781 9.421875 9.023438 9.480469 9 9.542969 C 8.710938 9.550781 7.25 9.589844 5.714844 9.503906 C 4.710938 9.449219 2.320312 9.25 1.855469 8.628906 Z M 3.972656 9.933594 C 4.472656 10.003906 5.042969 10.054688 5.6875 10.089844 C 6.25 10.121094 6.800781 10.136719 7.292969 10.140625 L 3.542969 12.371094 L 2.34375 12.453125 C 2.472656 11.519531 3.023438 10.636719 3.972656 9.933594 Z M 8.792969 14.992188 C 8.480469 15.601562 8.183594 16.09375 7.910156 16.445312 C 7.511719 16.957031 7.269531 17.050781 7.160156 17.058594 C 6.242188 17.136719 5.425781 16.972656 4.695312 16.558594 L 5.113281 16.066406 C 5.214844 15.941406 5.199219 15.757812 5.078125 15.652344 C 4.953125 15.550781 4.769531 15.566406 4.664062 15.6875 L 4.203125 16.234375 C 3.785156 15.910156 3.398438 15.5 3.039062 14.988281 C 2.589844 14.355469 2.355469 13.691406 2.320312 13.039062 L 7.167969 12.71875 L 5.476562 14.722656 C 5.375 14.847656 5.390625 15.03125 5.511719 15.136719 C 5.566406 15.183594 5.632812 15.207031 5.703125 15.207031 C 5.785156 15.207031 5.867188 15.171875 5.925781 15.101562 L 8.828125 11.664062 C 8.949219 12.382812 9.238281 12.929688 9.617188 13.152344 C 9.464844 13.539062 9.160156 14.265625 8.792969 14.992188 Z M 16.960938 14.988281 C 16.601562 15.5 16.214844 15.910156 15.796875 16.234375 L 15.335938 15.6875 C 15.230469 15.566406 15.046875 15.550781 14.921875 15.652344 C 14.800781 15.757812 14.785156 15.941406 14.886719 16.066406 L 15.304688 16.558594 C 14.574219 16.972656 13.757812 17.136719 12.839844 17.058594 C 12.730469 17.050781 12.488281 16.957031 12.089844 16.445312 C 11.816406 16.09375 11.519531 15.601562 11.207031 14.992188 C 10.839844 14.269531 10.539062 13.542969 10.382812 13.15625 C 10.765625 12.9375 11.058594 12.390625 11.179688 11.671875 L 14.074219 15.101562 C 14.132812 15.171875 14.214844 15.207031 14.296875 15.207031 C 14.367188 15.207031 14.433594 15.183594 14.488281 15.136719 C 14.609375 15.03125 14.625 14.847656 14.523438 14.722656 L 12.828125 12.71875 L 17.679688 13.039062 C 17.644531 13.691406 17.410156 14.355469 16.960938 14.988281 Z M 17.65625 12.453125 L 16.457031 12.371094 L 12.707031 10.140625 C 13.199219 10.136719 13.75 10.121094 14.3125 10.089844 C 14.957031 10.054688 15.527344 10.003906 16.027344 9.933594 C 16.976562 10.636719 17.527344 11.519531 17.65625 12.453125 Z M 19.414062 3.566406 C 19.414062 3.816406 19.183594 4.21875 18.941406 4.648438 C 18.871094 4.773438 18.796875 4.90625 18.71875 5.046875 C 18.484375 4.695312 18.046875 4.25 17.242188 3.980469 C 17.101562 3.933594 16.941406 3.996094 16.878906 4.128906 C 16.800781 4.292969 16.882812 4.480469 17.050781 4.535156 C 18.121094 4.890625 18.367188 5.59375 18.398438 5.699219 C 18.0625 6.464844 17.855469 7.363281 18.183594 8.359375 C 18.21875 8.464844 18.210938 8.542969 18.144531 8.628906 C 17.679688 9.25 15.289062 9.449219 14.285156 9.503906 C 12.765625 9.589844 11.320312 9.550781 11.007812 9.542969 C 10.984375 9.476562 10.957031 9.410156 10.925781 9.351562 C 10.910156 9.316406 10.914062 9.21875 10.914062 9.21875 C 10.957031 8.972656 11.691406 7.390625 13.023438 5.859375 C 13.441406 5.375 13.953125 4.863281 14.546875 4.402344 C 15.039062 4.335938 15.5 4.3125 15.917969 4.335938 C 16.074219 4.34375 16.222656 4.226562 16.234375 4.070312 C 16.25 3.902344 16.125 3.757812 15.960938 3.75 C 15.820312 3.742188 15.675781 3.742188 15.53125 3.742188 C 16.390625 3.253906 17.375 2.921875 18.464844 2.921875 C 18.902344 2.921875 19.199219 3.003906 19.324219 3.160156 C 19.414062 3.273438 19.414062 3.425781 19.414062 3.558594 Z M 19.414062 3.566406 "/>
</g>
</svg>
