<?xml version="1.0" encoding="iso-8859-1"?>
<!-- Generator: Adobe Illustrator 19.0.0, SVG Export Plug-In . SVG Version: 6.00 Build 0)  -->
<svg version="1.1" id="Capa_1" xmlns="http://www.w3.org/2000/svg" xmlns:xlink="http://www.w3.org/1999/xlink" x="0px" y="0px"
	 viewBox="0 0 512 512" style="enable-background:new 0 0 512 512;" xml:space="preserve">
<polygon style="fill:#40596B;" points="468.267,379.733 468.267,379.733 488.533,373.333 476.8,356.267 496,349.867 484.267,332.8 
	504.533,326.4 492.8,309.333 512,302.933 500.267,285.867 500.267,285.867 43.733,132.267 43.733,132.267 23.467,138.667 
	35.2,155.733 16,162.133 27.733,179.2 7.467,185.6 19.2,202.667 0,209.067 11.733,226.133 11.733,226.133 "/>
<g>
	<polygon style="fill:#FFD15C;" points="64,244.267 18.133,228.267 124.8,158.933 170.667,174.933 	"/>
	<polygon style="fill:#FFD15C;" points="171.733,280.533 125.867,264.533 232.533,195.2 277.333,211.2 	"/>
	<polygon style="fill:#FFD15C;" points="279.467,315.733 233.6,300.8 339.2,231.467 385.067,246.4 	"/>
	<polygon style="fill:#FFD15C;" points="386.133,352 340.267,337.067 446.933,267.733 492.8,282.667 	"/>
</g>
<polygon style="fill:#40596B;" points="43.733,379.733 43.733,379.733 23.467,373.333 35.2,356.267 16,349.867 27.733,332.8 
	7.467,326.4 19.2,309.333 0,302.933 11.733,285.867 11.733,285.867 468.267,132.267 468.267,132.267 488.533,138.667 476.8,155.733 
	496,162.133 484.267,179.2 504.533,185.6 492.8,202.667 512,209.067 500.267,226.133 500.267,226.133 "/>
<g>
	<polygon style="fill:#FFD15C;" points="448,244.267 493.867,228.267 387.2,158.933 341.333,174.933 	"/>
	<polygon style="fill:#FFD15C;" points="340.267,280.533 386.133,264.533 279.467,195.2 234.667,211.2 	"/>
	<polygon style="fill:#FFD15C;" points="232.533,315.733 278.4,300.8 172.8,231.467 126.933,246.4 	"/>
	<polygon style="fill:#FFD15C;" points="125.867,352 171.733,337.067 65.067,267.733 19.2,282.667 	"/>
</g>
<g>
</g>
<g>
</g>
<g>
</g>
<g>
</g>
<g>
</g>
<g>
</g>
<g>
</g>
<g>
</g>
<g>
</g>
<g>
</g>
<g>
</g>
<g>
</g>
<g>
</g>
<g>
</g>
<g>
</g>
</svg>
