<svg height="512pt" viewBox="0 -82 512.00212 512" width="512pt" xmlns="http://www.w3.org/2000/svg"><path d="m236.003906 198.582031-96.945312 113.605469 2.269531 3.398438c9.179687 13.765624 24.628906 22.035156 41.175781 22.035156 20.234375 0 38.433594-12.316406 45.953125-31.105469l10.378907-25.957031zm0 0" fill="#e09532"/><path d="m276 198.582031-2.832031 81.976563 10.378906 25.957031c7.519531 18.789063 25.71875 31.105469 45.953125 31.105469 16.550781 0 31.996094-8.269532 41.175781-22.035156l2.269531-3.398438zm0 0" fill="#e09532"/><path d="m425.476562 178.144531c-48.953124-48.953125-103.425781-76.886719-133.667968-71.058593l-5.832032 1.648437h-.007812l-9.980469 21.269531.011719.007813v68.570312c9.539062 26.207031 26.214844 54.273438 50.492188 78.550781 58.945312 58.945313 144.796874 72.675782 167.976562 49.480469 23.425781-23.425781-10.417969-89.898437-68.992188-148.46875zm0 0" fill="#ffc06c"/><path d="m285.96875 108.734375c-.558594 16.210937-13.953125 28.917969-29.964844 28.917969-16.03125 0-29.414062-12.722656-29.96875-28.917969-.84375-15.238281 12.796875-51.070313 29.96875-51.070313 17.148438 0 30.8125 35.8125 29.964844 51.070313zm0 0" fill="#e09532"/><path d="m275.988281 130.003906h-39.972656l-.011719.007813v137.621093c0 3.75 1.03125 8.410157 2.832032 12.925782 3.488281 8.800781 9.867187 17.070312 17.167968 17.070312 7.296875 0 13.675782-8.269531 17.164063-17.070312 1.800781-4.515625 2.832031-9.175782 2.832031-12.925782 0-16.828124 0-121.039062 0-137.621093zm0 0" fill="#6d6d6d"/><path d="m226.035156 108.734375h-.007812l-5.828125-1.648437c-30.246094-5.828126-84.71875 22.105468-133.671875 71.058593-58.570313 58.570313-92.417969 125.042969-68.992188 148.46875 17.710938 17.71875 71.179688 13.839844 121.523438-14.425781 46.644531-26.152344 80.433594-68.238281 96.945312-113.605469v-68.570312l.011719-.007813zm0 0" fill="#ffc06c"/><path d="m405.980469 237.636719c0 5.523437-4.476563 10-10 10-5.519531 0-9.996094-4.476563-9.996094-10 0-5.523438 4.476563-10 9.996094-10 5.523437 0 10 4.476562 10 10zm0 0"/><path d="m126.019531 237.636719c0 5.523437-4.476562 10-9.996093 10-5.523438 0-10-4.476563-10-10 0-5.523438 4.476562-10 10-10 5.519531 0 9.996093 4.476562 9.996093 10zm0 0"/><path d="m53.566406 347.339844c24.214844 0 53.875-7.617188 82.386719-22.175782 11.238281 14.144532 28.292969 22.457032 46.550781 22.457032 24.464844 0 46.144532-14.675782 55.234375-37.390625l3.433594-8.589844c4.484375 3.871094 9.550781 5.988281 14.828125 5.988281 5.28125 0 10.347656-2.117187 14.832031-5.988281l3.433594 8.59375c9.089844 22.710937 30.769531 37.386719 55.234375 37.386719 18.261719 0 35.316406-8.3125 46.550781-22.457032 28.515625 14.558594 58.171875 22.175782 82.390625 22.175782 18.550782 0 33.902344-4.457032 43.097656-13.65625 10.140626-10.140625 18.058594-30.9375-1.796874-72.4375-13.59375-28.40625-37.453126-60.429688-67.195313-90.171875-31.511719-31.511719-65.527344-54.878907-95.050781-66.503907l61.203125-17.289062c5.3125-1.5 8.40625-7.023438 6.902343-12.339844-1.5-5.3125-7.019531-8.402344-12.339843-6.902344l-98.601563 27.851563c-.160156-.769531-.328125-1.519531-.5-2.253906l28.902344-28.902344c1.875-1.875 2.925781-4.417969 2.925781-7.070313v-15.644531l35.542969-23.699219c4.597656-3.0625 5.835938-9.269531 2.773438-13.867187-3.0625-4.59375-9.273438-5.832031-13.867188-2.769531l-39.992188 26.664062c-2.78125 1.855469-4.453124 4.976563-4.453124 8.320313v16.855469l-19.355469 19.355468c-6.925781-13.800781-17.359375-25.214844-30.636719-25.214844s-23.707031 11.410157-30.636719 25.214844l-19.355469-19.355468v-16.855469c0-3.34375-1.671874-6.464844-4.453124-8.320313l-39.992188-26.664062c-4.597656-3.0625-10.804688-1.824219-13.867188 2.769531s-1.820312 10.804687 2.773438 13.867187l35.542969 23.699219v15.644531c0 2.652344 1.050781 5.195313 2.925781 7.070313l28.902344 28.902344c-.171875.734375-.339844 1.488281-.496094 2.257812l-98.605469-27.855469c-5.316406-1.503906-10.839843 1.589844-12.339843 6.902344-1.5 5.316406 1.589843 10.839844 6.902343 12.339844l61.214844 17.292969c-29.53125 11.621093-63.546875 34.988281-95.0625 66.5-29.738281 29.742187-53.601563 61.761719-67.191406 90.171875-19.855469 41.5-11.9375 62.296875-1.800781 72.4375 9.199218 9.199218 24.550781 13.65625 43.105468 13.65625zm165.605469-44.539063c-6.035156 15.082031-20.425781 24.824219-36.667969 24.824219-11.050781 0-21.429687-4.597656-28.832031-12.527344 29.941406-18.785156 54.25-43.777344 72.335937-73.171875v25.707031c0 3.859376.757813 8.261719 2.148438 12.703126zm36.855469-15.167969c-2.980469-.398437-10.023438-11.726562-10.023438-20v-121.261718c3.238282.835937 6.59375 1.28125 10 1.28125 3.402344 0 6.757813-.445313 9.996094-1.28125v121.261718c0 8.273438-7.046875 19.585938-9.972656 20zm73.472656 39.992188c-16.238281 0-30.632812-9.746094-36.667969-24.820312l-8.984375-22.46875c1.390625-4.445313 2.148438-8.847657 2.148438-12.703126v-25.707031c18.011718 29.273438 42.28125 54.3125 72.335937 73.171875-7.402343 7.925782-17.78125 12.527344-28.832031 12.527344zm152.203125-57.75c11.21875 23.449219 13.347656 42.015625 5.691406 49.671875-6.351562 6.355469-21.835937 9.097656-40.410156 7.152344-62.835937-6.574219-132.949219-55.074219-160.988281-129.90625v-62.71875c.25-.285157.507812-.570313.75-.863281l21.496094 16.128906c12.59375 9.445312 21.882812 22.332031 26.859374 37.269531 4.371094 13.101563 11.324219 24.886719 20.660157 35.027344 1.96875 2.140625 4.660156 3.226562 7.355469 3.226562 2.421874 0 4.847656-.875 6.769531-2.644531 4.0625-3.742188 4.324219-10.066406.585937-14.128906-7.410156-8.046875-12.929687-17.402344-16.398437-27.804688-6.269531-18.8125-17.96875-35.042968-33.832031-46.9375l-22.550782-16.921875c24.882813-1.609375 72.59375 20.667969 120.714844 68.792969 28.179688 28.175781 50.660156 58.242188 63.296875 84.65625zm-225.699219-202.214844c3.863282 0 12.277344 9.203125 17.40625 25.84375 1.261719 4.089844 2.804688 10.667969 2.578125 14.664063-.8125 12.484375-10.382812 19.484375-19.984375 19.484375-11.363281 0-19.996094-9.359375-19.996094-19.996094 0-4.355469 1.285157-9.921875 2.585938-14.152344 5.128906-16.640625 13.542969-25.84375 17.410156-25.84375zm-225.703125 202.214844c12.640625-26.414062 35.117188-56.480469 63.296875-84.660156 48.101563-48.101563 95.792969-70.378906 120.710938-68.789063l-22.546875 16.917969c-15.859375 11.894531-27.558594 28.128906-33.832031 46.9375-3.46875 10.402344-8.984376 19.761719-16.394532 27.808594-3.742187 4.0625-3.480468 10.386718.582032 14.128906 4.054687 3.730469 10.378906 3.484375 14.128906-.585938 9.335937-10.136718 16.285156-21.921874 20.65625-35.027343 4.980468-14.933594 14.265625-27.820313 26.859375-37.265625l21.496093-16.128906c.242188.292968.496094.578124.75.863281v62.71875c-27.78125 74.140625-97.523437 123.269531-160.988281 129.90625-18.578125 1.941406-34.058593-.796875-40.410156-7.15625-7.65625-7.652344-5.527344-26.21875 5.691406-49.667969zm0 0"/></svg>