<?xml version="1.0" encoding="iso-8859-1"?>
<!-- Generator: Adobe Illustrator 19.0.0, SVG Export Plug-In . SVG Version: 6.00 Build 0)  -->
<svg version="1.1" id="Capa_1" xmlns="http://www.w3.org/2000/svg" xmlns:xlink="http://www.w3.org/1999/xlink" x="0px" y="0px"
	 viewBox="0 0 480.045 480.045" style="enable-background:new 0 0 480.045 480.045;" xml:space="preserve">
<path style="fill:#75E6FF;" d="M402.881,240.045c-0.184,0.68-0.432,1.336-0.624,2.016c5.558-20.006,7.228-40.893,4.92-61.528
	c-5.001-47.428-27.807-91.194-63.816-122.464C313.964,32.428,278.22,15.152,239.865,8.045v69.112c0.616,0.16,1.208,0.392,1.816,0.56
	c-19.897-5.47-40.654-7.099-61.16-4.8c-47.426,4.997-91.191,27.797-122.464,63.8c-25.629,29.401-42.894,65.144-49.992,103.496
	l69.256-0.168c0.645-2.405,1.355-4.805,2.128-7.2c-5.659,17.831-8.19,36.506-7.48,55.2c2.118,51.615,25.414,100.076,64.4,133.968
	c29.325,25.751,65.1,43.046,103.496,50.032v-69.344c-2.336-0.635-4.661-1.325-6.976-2.072c17.831,5.659,36.506,8.189,55.2,7.48
	c51.615-2.118,100.076-25.414,133.968-64.4c25.743-29.328,43.028-65.102,50.008-103.496L402.881,240.045z M260.425,84.317
	c1.184,0.512,2.4,1.024,3.544,1.56C262.79,85.343,261.609,84.823,260.425,84.317z M271.001,89.381
	c0.952,0.504,1.92,0.976,2.864,1.504C272.921,90.357,271.953,89.885,271.001,89.381z M283.297,96.581c0.416,0.28,0.8,0.6,1.232,0.88
	c-0.416-0.24-0.816-0.56-1.264-0.84L283.297,96.581z M292.289,103.149c0.96,0.76,1.896,1.56,2.84,2.352
	c-0.944-0.752-1.88-1.552-2.84-2.312V103.149z M311.785,121.797c-0.8-0.92-1.6-1.784-2.4-2.68c0.776,0.928,1.608,1.8,2.4,2.72
	V121.797z M303.841,113.365c-0.96-0.952-1.936-1.872-2.92-2.784c0.984,0.952,1.96,1.872,2.92,2.824V113.365z M253.505,81.557
	c-1.16-0.432-2.32-0.872-3.496-1.28C251.185,80.685,252.345,81.125,253.505,81.557z M358.225,311.813
	c0.92-0.8,1.792-1.6,2.696-2.456C360.017,310.173,359.145,311.013,358.225,311.813z M366.649,303.877
	c0.949-0.96,1.88-1.936,2.792-2.928C368.524,301.946,367.593,302.922,366.649,303.877z M399.769,250.093
	c-0.408,1.2-0.856,2.4-1.296,3.56C398.913,252.469,399.361,251.285,399.769,250.093z M395.769,260.493
	c-0.512,1.184-1.024,2.4-1.6,3.544c0.536-1.144,1.048-2.336,1.56-3.52L395.769,260.493z M390.681,271.085
	c-0.496,0.944-0.96,1.896-1.48,2.824c0.464-0.904,0.944-1.864,1.44-2.8L390.681,271.085z M383.481,283.317
	c-0.328,0.488-0.688,0.944-1.024,1.424c0.288-0.456,0.648-0.912,0.976-1.4L383.481,283.317z M376.865,292.325
	c-0.8,0.976-1.6,1.912-2.4,2.872C375.265,294.245,376.065,293.301,376.865,292.325z"/>
<g>
	<path style="fill:#ADF0FF;" d="M239.865,77.157c31.833,8.231,59.825,27.251,79.2,53.816c24.152,32.8,31.624,75.32,12.648,111.544
		c-7.181,14.268-18.652,25.929-32.8,33.344c-11.348,5.802-24.373,7.43-36.8,4.6c-2.296-1.144-5.176-1.72-7.472-2.872
		c-8.411-3.871-14.711-11.223-17.248-20.128c-1.325-5.942-0.443-12.164,2.48-17.504l0.064-0.096
		c-5.317-2.857-11.484-3.709-17.376-2.4c-8.893,2.545-16.232,8.844-20.096,17.248c-1.152,2.296-1.72,5.176-2.872,7.472
		c-2.83,12.427-1.202,25.452,4.6,36.8c7.415,14.148,19.076,25.619,33.344,32.8c36.224,18.976,78.776,11.504,111.544-12.648
		c43.036-32.254,65.254-85.268,58.072-138.568c-4.987-47.436-27.785-91.214-63.792-122.496
		C313.964,32.428,278.22,15.152,239.865,8.045L239.865,77.157z"/>
	<path style="fill:#ADF0FF;" d="M239.825,402.701c-2.336-0.635-4.661-1.325-6.976-2.072c-28.799-8.975-53.98-26.913-71.872-51.2
		c-24.152-32.8-31.624-75.32-12.648-111.544c7.183-14.269,18.653-25.931,32.8-33.352c11.348-5.802,24.373-7.43,36.8-4.6
		c2.296,1.152,5.176,1.728,7.472,2.88c13.675,5.72,20.678,20.972,16.104,35.072c-0.567,0.638-1.084,1.321-1.544,2.04l0.064-0.096
		c0.767,0.47,1.493,1.005,2.168,1.6c14.1,4.574,29.352-2.429,35.072-16.104c1.152-2.296,1.728-5.176,2.88-7.472
		c2.83-12.427,1.202-25.452-4.6-36.8c-7.421-14.147-19.083-25.617-33.352-32.8c-36.224-18.976-78.768-11.504-111.544,12.648
		c-24.287,17.892-42.225,43.073-51.2,71.872c-5.655,17.832-8.186,36.506-7.48,55.2c2.118,51.615,25.414,100.076,64.4,133.968
		c29.317,25.777,65.092,43.097,103.496,50.104L239.825,402.701z"/>
</g>
<path style="fill:#505968;" d="M473.441,232.341c-4.35-0.775-8.504,2.122-9.28,6.472l0,0c-6.678,36.976-23.327,71.426-48.152,99.632
	c-32.484,37.253-78.827,59.551-128.208,61.688c-17.788,0.748-35.568-1.654-52.52-7.096c-27.215-8.404-51.007-25.336-67.864-48.296
	c-23.792-32.296-28.4-71.8-12-103.112c6.329-12.68,16.452-23.074,28.96-29.736c9.45-4.956,20.323-6.491,30.776-4.344
	c1.248,0.552,2.592,1.016,3.944,1.464c9.148,2.788,15.517,11.075,15.856,20.632c-4.722-0.845-9.558-0.845-14.28,0
	c-11.167,3.115-20.421,10.944-25.344,21.44c-0.731,1.555-1.354,3.159-1.864,4.8c-0.27,0.918-0.604,1.816-1,2.688
	c-0.241,0.475-0.431,0.974-0.568,1.488c-3.357,14.371-1.506,29.466,5.224,42.6c8.156,15.602,21.002,28.252,36.728,36.168
	c14.709,7.654,31.059,11.613,47.64,11.536c26.14-0.34,51.486-9.03,72.336-24.8c45.301-33.972,68.742-89.746,61.312-145.88
	c-5.313-49.444-29.1-95.06-66.6-127.72C318.054,25.425,281.014,7.54,241.273,0.173c-4.324-0.909-8.566,1.859-9.475,6.183
	c-0.909,4.324,1.859,8.566,6.183,9.475c0.16,0.034,0.322,0.062,0.484,0.086c36.919,6.874,71.324,23.509,99.64,48.176
	c34.44,30.001,56.283,71.899,61.16,117.312c6.785,50.453-14.192,100.639-54.864,131.256c-32.288,23.792-71.792,28.392-103.104,12
	c-12.683-6.329-23.079-16.451-29.744-28.96c-4.947-9.459-6.481-20.334-4.344-30.792c0.552-1.248,1.024-2.592,1.48-3.944
	c0.267-0.917,0.601-1.813,1-2.68c2.728-6.129,7.912-10.825,14.28-12.936c1.882-0.312,3.792-0.417,5.696-0.312
	c-0.861,4.761-0.861,9.639,0,14.4c3.12,11.162,10.948,20.412,21.44,25.336c1.552,0.735,3.157,1.355,4.8,1.856
	c0.917,0.276,1.815,0.613,2.688,1.008c0.475,0.243,0.973,0.436,1.488,0.576c4.356,1.176,8.849,1.765,13.36,1.752
	c10.13-0.223,20.095-2.604,29.232-6.984c15.608-8.152,28.26-21.002,36.168-36.736c19.256-36.744,14.168-82.728-13.272-120
	C291.591,80.939,235.806,57.5,179.665,64.941c-49.441,5.31-95.052,29.097-127.704,66.6c-26.545,30.481-44.433,67.522-51.8,107.264
	c-0.851,4.335,1.973,8.54,6.309,9.392c4.335,0.851,8.54-1.973,9.392-6.309c0.016-0.081,0.03-0.162,0.044-0.243
	c6.867-36.925,23.496-71.338,48.16-99.664c30.009-34.43,71.908-56.264,117.32-61.136c50.456-6.788,100.646,14.19,131.264,54.864
	c23.8,32.296,28.392,71.8,12,103.112c-6.329,12.68-16.452,23.074-28.96,29.736c-9.453,4.948-20.323,6.482-30.776,4.344
	c-1.248-0.552-2.6-1.032-4-1.48c-0.911-0.265-1.802-0.596-2.664-0.992c-6.129-2.735-10.826-7.92-12.944-14.288
	c-0.315-1.887-0.419-3.802-0.312-5.712c16.477,2.63,32.653-6.194,39.36-21.472c0.742-1.552,1.37-3.157,1.88-4.8
	c0.271-0.915,0.605-1.811,1-2.68c0.234-0.475,0.424-0.97,0.568-1.48c3.35-14.371,1.5-29.464-5.224-42.6
	c-8.164-15.599-21.011-28.248-36.736-36.168c-36.8-19.248-82.728-14.152-120.056,13.344c-25.566,18.939-44.457,45.506-53.952,75.872
	c-5.922,18.71-8.579,38.3-7.856,57.912c2.303,53.825,26.595,104.345,67.2,139.752c30.373,26.725,67.472,44.639,107.288,51.808
	c0.467,0.086,0.941,0.129,1.416,0.128c4.418-0.014,7.989-3.607,7.975-8.025c-0.012-3.859-2.777-7.16-6.575-7.847
	c-36.969-6.67-71.414-23.312-99.616-48.128c-37.26-32.48-59.562-78.825-61.696-128.208c-0.705-17.786,1.696-35.559,7.096-52.52
	c8.404-27.215,25.336-51.007,48.296-67.864c32.296-23.792,71.792-28.384,103.112-12c12.679,6.334,23.074,16.455,29.744,28.96
	c4.944,9.46,6.475,20.335,4.336,30.792c-0.552,1.24-1.016,2.584-1.464,3.928c-0.323,1.056-0.722,2.088-1.192,3.088
	c-3.361,7.751-10.992,12.775-19.44,12.8c2.582-16.459-6.253-32.592-21.512-39.28c-1.553-0.737-3.157-1.36-4.8-1.864
	c-0.917-0.276-1.815-0.613-2.688-1.008c-0.471-0.236-0.964-0.426-1.472-0.568c-14.37-3.342-29.458-1.488-42.592,5.232
	c-15.604,8.154-28.255,21.001-36.168,36.728c-19.256,36.752-14.16,82.736,13.336,120.048c18.92,25.565,45.462,44.47,75.808,53.992
	c16.875,5.361,34.486,8.041,52.192,7.944c1.904,0,3.816,0,5.736-0.088c53.832-2.304,104.359-26.603,139.768-67.216
	c26.733-30.374,44.659-67.475,51.84-107.296c0.789-4.347-2.095-8.511-6.443-9.3C473.455,232.343,473.448,232.342,473.441,232.341
	L473.441,232.341z"/>
<g>
</g>
<g>
</g>
<g>
</g>
<g>
</g>
<g>
</g>
<g>
</g>
<g>
</g>
<g>
</g>
<g>
</g>
<g>
</g>
<g>
</g>
<g>
</g>
<g>
</g>
<g>
</g>
<g>
</g>
</svg>
